<?xml version="1.0" encoding="UTF-8" standalone="no"?>
<!-- Created with Inkscape (http://www.inkscape.org/) -->

<svg
   xmlns:dc="http://purl.org/dc/elements/1.1/"
   xmlns:cc="http://creativecommons.org/ns#"
   xmlns:rdf="http://www.w3.org/1999/02/22-rdf-syntax-ns#"
   xmlns:svg="http://www.w3.org/2000/svg"
   xmlns="http://www.w3.org/2000/svg"
   xmlns:sodipodi="http://sodipodi.sourceforge.net/DTD/sodipodi-0.dtd"
   xmlns:inkscape="http://www.inkscape.org/namespaces/inkscape"
   width="156.57631mm"
   height="33.765877mm"
   viewBox="0 0 156.57631 33.765877"
   version="1.1"
   id="svg8"
   inkscape:version="0.92.4 (5da689c313, 2019-01-14)"
   sodipodi:docname="Logo-Nap.svg"
   inkscape:export-filename="C:\Users\dpeta\OneDrive\Documents\Moje projekty\napedowcy strona\grafika\logoNap5.png"
   inkscape:export-xdpi="96"
   inkscape:export-ydpi="96">
  <defs
     id="defs2">
    <inkscape:path-effect
       effect="spiro"
       id="path-effect921"
       is_visible="true" />
  </defs>
  <sodipodi:namedview
     id="base"
     pagecolor="#ffffff"
     bordercolor="#666666"
     borderopacity="1.0"
     inkscape:pageopacity="0.0"
     inkscape:pageshadow="2"
     inkscape:zoom="1.4"
     inkscape:cx="86.0755"
     inkscape:cy="24.603638"
     inkscape:document-units="mm"
     inkscape:current-layer="layer1"
     showgrid="false"
     inkscape:object-paths="false"
     inkscape:snap-bbox="false"
     inkscape:bbox-nodes="true"
     inkscape:snap-bbox-edge-midpoints="false"
     inkscape:snap-bbox-midpoints="false"
     inkscape:snap-intersection-paths="true"
     inkscape:object-nodes="false"
     inkscape:snap-smooth-nodes="false"
     inkscape:snap-midpoints="false"
     inkscape:snap-others="false"
     inkscape:snap-global="true"
     showguides="true"
     inkscape:guide-bbox="true"
     fit-margin-top="0"
     fit-margin-left="0"
     fit-margin-right="0"
     fit-margin-bottom="0"
     inkscape:window-width="1680"
     inkscape:window-height="987"
     inkscape:window-x="-8"
     inkscape:window-y="-8"
     inkscape:window-maximized="1" />
  <metadata
     id="metadata5">
    <rdf:RDF>
      <cc:Work
         rdf:about="">
        <dc:format>image/svg+xml</dc:format>
        <dc:type
           rdf:resource="http://purl.org/dc/dcmitype/StillImage" />
        <dc:title></dc:title>
      </cc:Work>
    </rdf:RDF>
  </metadata>
  <g
     inkscape:label="Layer 1"
     inkscape:groupmode="layer"
     id="layer1"
     transform="translate(-84.33941,-77.269836)">
    <path
       style="opacity:1;fill:#f2f2f2;fill-opacity:1;stroke:#e6e6e6;stroke-width:0;stroke-linecap:round;stroke-linejoin:round;stroke-miterlimit:4;stroke-dasharray:none;stroke-dashoffset:0;stroke-opacity:1"
       d="m 106.65077,93.892351 a 5.477602,5.477602 0 0 1 0,7.746509 5.477602,5.477602 0 0 1 -7.746493,0 5.477602,5.477602 0 0 1 0,-7.746509 5.477602,5.477602 0 0 1 7.746493,0 z"
       id="path820"
       inkscape:connector-curvature="0"
       inkscape:export-xdpi="96"
       inkscape:export-ydpi="96" />
    <path
       style="opacity:1;fill:#f2f2f2;fill-opacity:1;stroke:none;stroke-width:0;stroke-linecap:round;stroke-linejoin:round;stroke-miterlimit:4;stroke-dasharray:none;stroke-dashoffset:0;stroke-opacity:1"
       d="M 99.92205,0.06657737 93.972517,13.411318 c -1.367323,-0.601514 0.343755,0.03491 -0.929548,-0.432802 -0.715918,-0.258993 -1.434726,-0.510617 -2.158203,-0.748047 -0.943333,-0.308561 -1.889799,-0.604307 -2.84961,-0.857422 -1.512378,-0.403839 -3.031073,-0.786138 -4.5625,-1.111328 C 82.326552,10.021817 81.177541,9.7892561 80.019531,9.6132812 79.146801,9.4802041 78.272881,9.3538359 77.396484,9.2480469 76.766588,9.173628 76.135579,9.1060124 75.503906,9.0488281 c -0.790639,-0.072227 -1.581904,-0.1375202 -2.375,-0.1777343 -1.003804,-0.046224 -2.008771,-0.076489 -3.013672,-0.085938 -1.313537,-0.011036 -2.627087,-0.00925 -3.939453,0.052734 -0.983319,0.049587 -1.964941,0.117482 -2.945312,0.2089844 -1.32034,0.1235868 -2.640155,0.2631026 -3.953125,0.4511719 -0.79465,0.1163943 -1.587127,0.2409046 -2.376953,0.3867187 -0.891198,0.1630602 -1.781833,0.3351562 -2.666016,0.5332032 -0.748921,0.168359 -1.495899,0.345689 -2.238281,0.541015 -0.763695,0.200739 -1.52534,0.405322 -2.283203,0.626954 -0.552174,0.162621 -1.104706,0.32841 -1.652344,0.505859 -0.674151,0.218071 -1.346181,0.443001 -2.013672,0.681641 -0.663027,0.237184 -1.322863,0.481097 -1.976563,0.742187 -0.7252,0.288386 -1.449228,0.583829 -2.166015,0.892578 -0.745879,0.322938 -1.489427,0.651275 -2.224609,0.998047 -0.625471,0.295276 -1.248152,0.596368 -1.863282,0.912109 -0.652667,0.335626 -1.301464,0.677337 -1.941406,1.03711 -0.571661,0.3207 -1.140916,0.644896 -1.705078,0.978515 -0.624582,0.36968 -1.246883,0.744611 -1.861328,1.13086 -0.531167,0.334155 -1.059867,0.671966 -1.582032,1.019531 -0.611074,0.406617 -1.219195,0.818935 -1.816406,1.246094 -0.556584,0.3997 -1.108156,0.80251 -1.652344,1.21875 -0.572503,0.439026 -1.141166,0.884777 -1.701171,1.339843 -0.486456,0.397195 -0.971295,0.7969 -1.447266,1.207032 -0.533726,0.460505 -1.062656,0.927135 -1.582031,1.404297 -0.543383,0.502405 -1.080465,1.00971 -1.607422,1.529297 -0.546928,0.538457 -1.091374,1.081234 -1.621094,1.636718 -0.4894,0.513547 -0.972689,1.031354 -1.447266,1.558594 -0.490869,0.548519 -0.9778,1.101971 -1.453124,1.664062 -0.47695,0.56645 -0.948901,1.136201 -1.40625,1.71875 -0.405737,0.516182 -0.80466,1.038177 -1.197266,1.564454 -0.406825,0.546837 -0.809827,1.095422 -1.203125,1.652343 -0.382927,0.545001 -0.762481,1.094222 -1.128906,1.650391 -0.324182,0.49262 -0.642323,0.986648 -0.955079,1.486328 -0.357429,0.57385 -0.7123374,1.151549 -1.054687,1.734375 -0.3492926,0.595714 -0.6955135,1.19371 -1.0253906,1.800781 C 8.1807989,45.349412 7.936951,45.804075 7.6992188,46.261719 7.4422487,46.762068 7.1910452,47.264502 6.9472656,47.771484 6.6831522,48.324078 6.4225711,48.878852 6.171875,49.4375 5.935681,49.962669 5.7030952,50.489131 5.4785156,51.019531 5.2159972,51.641555 4.9574639,52.26493 4.7128906,52.894531 4.47249,53.514763 4.2394108,54.139474 4.015625,54.765625 3.8199929,55.313324 3.6283183,55.86219 3.4511719,56.416016 3.2864865,56.928648 3.1238618,57.441084 2.96875,57.957031 2.8144659,58.471523 2.6626497,58.987849 2.5214844,59.505859 2.3478491,60.144891 2.1804646,60.783673 2.0253906,61.427734 1.8697383,62.079794 1.7200463,62.733585 1.578125,63.388672 1.4217697,64.116711 1.2680184,64.846106 1.1308594,65.578125 1.0089696,66.239557 0.89557069,66.901674 0.79492188,67.566406 0.67658487,68.348927 0.5656204,69.13361 0.47460938,69.919922 c -0.0838677,0.724588 -0.16055862,1.449057 -0.22265626,2.175781 -0.0628535,0.725276 -0.12185629,1.452627 -0.15625,2.179688 -0.03651023,0.780888 -0.07113398,1.562022 -0.08398437,2.34375 -0.01168629921,0.850945 -0.01845632,1.701788 0.0019531,2.552734 0.01848188,0.871899 0.04364569,1.744378 0.09179687,2.615234 0.0413102,0.723837 0.0863399,1.447481 0.1484375,2.169922 0.0676535,0.766934 0.1413108,1.53284 0.23632813,2.296875 0.10601574,0.837846 0.22082864,1.673406 0.3515625,2.507813 0.12746078,0.811351 0.25965655,1.623174 0.41601565,2.429687 0.1289121,0.664781 0.2632594,1.328376 0.4140625,1.988282 0.1770557,0.774727 0.3612279,1.548217 0.5644531,2.316406 0.2142539,0.805946 0.433299,1.609626 0.6738281,2.408203 0.3025323,0.997266 0.6210079,1.98945 0.9667969,2.972653 0.3612057,1.0204 0.7360399,2.03655 1.1445313,3.03907 0.3697738,0.91075 0.7479721,1.81898 1.1523437,2.71484 0.3349002,0.7378 0.6767192,1.47269 1.0390625,2.19726 0.36288,0.72065 0.7338727,1.43758 1.1230469,2.14454 0.5826898,1.0569 1.1829025,2.10315 1.8125005,3.13281 0.607422,0.99216 1.226342,1.97888 1.882812,2.93945 0.510353,0.74086 1.032552,1.47337 1.566406,2.19727 0.47523,0.64206 0.952881,1.28298 1.455078,1.90429 0.369415,0.45835 0.742116,0.91297 1.123047,1.36133 0.432401,0.50687 0.870595,1.00892 1.31836,1.50196 0.506914,0.56088 1.0174,1.11861 1.53125,1.67382 l -0.002,0.002 c 4.998844,5.40211 12.637505,-1.66835 7.638671,-7.07032 -0.485571,-0.52478 -0.967821,-1.05161 -1.447265,-1.58203 -0.38072,-0.41975 -0.751317,-0.84831 -1.119141,-1.27929 -0.317843,-0.37459 -0.631573,-0.75344 -0.939453,-1.13672 -0.41235,-0.51096 -0.80284,-1.03683 -1.193359,-1.56446 -0.463389,-0.62914 -0.916475,-1.26604 -1.359375,-1.91015 -0.549619,-0.8072 -1.06713,-1.63567 -1.576172,-2.46875 -0.547151,-0.89541 -1.070581,-1.80535 -1.576172,-2.72461 -0.326381,-0.59377 -0.636928,-1.19534 -0.941406,-1.80078 -0.298961,-0.59936 -0.581214,-1.20609 -0.857422,-1.81641 -0.346277,-0.76872 -0.671444,-1.54686 -0.988282,-2.32812 -0.349122,-0.856407 -0.666729,-1.723997 -0.974609,-2.595707 -0.29207,-0.833159 -0.562788,-1.674467 -0.818359,-2.519531 -0.205297,-0.682999 -0.393697,-1.37135 -0.576172,-2.060547 -0.171553,-0.650268 -0.327007,-1.303199 -0.476563,-1.958984 -0.125404,-0.549619 -0.2351,-1.103154 -0.341797,-1.65625 -0.132132,-0.686438 -0.244778,-1.37784 -0.353515,-2.06836 -0.114444,-0.731452 -0.213627,-1.464807 -0.306641,-2.199219 -0.07729,-0.630587 -0.140282,-1.261509 -0.195312,-1.894531 -0.05174,-0.618024 -0.09061,-1.238154 -0.125,-1.857422 -0.04343,-0.746426 -0.06527,-1.492916 -0.07813,-2.240234 -0.01293,-0.719218 -0.01285,-1.439088 0,-2.158203 0.01089,-0.665246 0.03983,-1.329443 0.07422,-1.994141 0.03095,-0.603379 0.07388,-1.206556 0.128906,-1.808593 0.05446,-0.626011 0.121132,-1.248968 0.193359,-1.873047 0.07631,-0.664524 0.170836,-1.326993 0.271485,-1.988282 0.08477,-0.556168 0.179353,-1.110928 0.28125,-1.664062 0.118484,-0.630629 0.249647,-1.259185 0.384765,-1.886719 0.125367,-0.578967 0.258607,-1.156554 0.396485,-1.732422 0.130869,-0.54308 0.273956,-1.083685 0.419921,-1.623047 0.117052,-0.427491 0.24162,-0.853016 0.369141,-1.277343 0.134313,-0.447674 0.276716,-0.892905 0.419922,-1.337891 0.14468,-0.451676 0.300988,-0.899326 0.460937,-1.345703 0.192186,-0.537774 0.393059,-1.071045 0.59961,-1.603516 0.207322,-0.532131 0.423946,-1.062305 0.646484,-1.58789 0.193538,-0.457384 0.395591,-0.910003 0.599609,-1.363282 0.217679,-0.484939 0.442534,-0.965868 0.671876,-1.445312 0.201112,-0.416338 0.409704,-0.831614 0.621093,-1.242188 0.200436,-0.384582 0.404021,-0.765549 0.611328,-1.146484 0.276099,-0.508981 0.567886,-1.010354 0.861329,-1.509766 0.296806,-0.504362 0.602868,-1.003347 0.912109,-1.5 0.267844,-0.426527 0.53948,-0.848922 0.816406,-1.269531 0.308466,-0.466904 0.627505,-0.927167 0.949219,-1.384765 0.338929,-0.479434 0.686445,-0.952922 1.037109,-1.423829 0.337659,-0.452269 0.681984,-0.900207 1.03125,-1.34375 0.385259,-0.4909 0.783262,-0.972057 1.185547,-1.449218 0.408095,-0.481833 0.825191,-0.955423 1.246094,-1.425782 0.402013,-0.445356 0.810607,-0.884394 1.224609,-1.318359 0.454141,-0.475979 0.92151,-0.93902 1.390625,-1.400391 0.449072,-0.442427 0.905536,-0.877128 1.369141,-1.304687 0.43217,-0.396454 0.872115,-0.783097 1.316406,-1.166016 0.404493,-0.348332 0.816467,-0.687954 1.230469,-1.02539 0.477611,-0.387489 0.960836,-0.766755 1.449219,-1.140625 0.458369,-0.350177 0.924154,-0.691155 1.392578,-1.027344 0.496569,-0.354618 1.003364,-0.695427 1.511719,-1.033203 0.448569,-0.298311 0.901414,-0.590314 1.357421,-0.876953 0.535151,-0.33614 1.076906,-0.660671 1.621094,-0.982422 0.495228,-0.29263 0.994607,-0.577989 1.496094,-0.859375 0.529519,-0.297759 1.068657,-0.579929 1.609375,-0.857422 0.510659,-0.261664 1.026253,-0.511286 1.544922,-0.75586 0.633936,-0.298813 1.274576,-0.581126 1.917968,-0.859374 0.620928,-0.267077 1.246767,-0.523876 1.875,-0.773438 0.540821,-0.215743 1.088419,-0.417653 1.636719,-0.613281 0.567682,-0.202832 1.139072,-0.392777 1.712891,-0.578125 0.46035,-0.149163 0.922419,-0.28735 1.386719,-0.423828 0.659966,-0.192522 1.325506,-0.37245 1.990234,-0.546875 0.621615,-0.163295 1.246208,-0.310687 1.873047,-0.451172 0.74869,-0.167414 1.503218,-0.311493 2.257812,-0.449219 0.667771,-0.123288 1.338106,-0.230273 2.009766,-0.328125 1.134765,-0.161133 2.275014,-0.278674 3.416016,-0.384766 0.83142,-0.07699 1.664056,-0.136537 2.498046,-0.177734 1.109972,-0.0508 2.221191,-0.05046 3.332032,-0.04102 0.871823,0.0085 1.744242,0.03302 2.615234,0.07422 0.638476,0.03402 1.275637,0.08794 1.91211,0.146484 0.540207,0.04857 1.078491,0.107813 1.617187,0.171876 0.760252,0.09248 1.518238,0.200563 2.275391,0.316406 0.968655,0.148308 1.929881,0.345464 2.888672,0.546875 1.346381,0.287006 2.682043,0.624815 4.011718,0.980469 0.774199,0.203833 1.536397,0.44391 2.296875,0.693359 0.621959,0.204321 1.239671,0.419586 1.855469,0.642578 0.861694,0.316868 1.712156,0.662667 2.560547,1.013672 0.880781,0.356579 1.741858,0.759808 2.597656,1.171875 1.394721,0.685175 2.766322,1.41704 4.121094,2.177734 0.933732,0.523782 1.843604,1.0884 2.742184,1.669922 0.54804,0.355839 1.08715,0.723634 1.62305,1.097656 0.35698,0.249801 0.71019,0.504699 1.06055,0.763672 0.46208,0.342112 0.91725,0.693981 1.37109,1.046875 0.41465,0.322076 0.82428,0.651663 1.23047,0.984375 0.30788,0.252922 0.61013,0.511264 0.91211,0.771485 0.25682,0.222085 0.51082,0.447547 0.76367,0.673828 l -0.043,-0.244141 c 0.0197,0.02193 0.0269,0.02638 0.0469,0.04883 l -0.0469,-0.05273 v -0.0059 l 0.0899,0.101563 -0.0488,-0.115234 c 0.002,0.267612 -8.08232,-32.8503708 -8.55842,-33.80256663 z"
       transform="matrix(0.26458333,0,0,0.26458333,84.33941,77.269836)"
       id="path929"
       inkscape:connector-curvature="0"
       sodipodi:nodetypes="cccccccccccccccccccccccccccccccccccccccccccccccccccccccccccccccccccccccccccccccccccccccccccccccccccccccccccccccccccccccccccccccccccccccccccccccccccccccccccccccccccccccccccccccccccc" />
    <text
       transform="scale(0.96641672,1.0347503)"
       id="text1433"
       y="87.699753"
       x="128.25505"
       style="font-style:normal;font-variant:normal;font-weight:normal;font-stretch:normal;font-size:11.68118191px;line-height:1.25;font-family:sans-serif;-inkscape-font-specification:'sans-serif, Normal';font-variant-ligatures:normal;font-variant-caps:normal;font-variant-numeric:normal;font-feature-settings:normal;text-align:start;letter-spacing:0px;word-spacing:0px;writing-mode:lr-tb;text-anchor:start;fill:#f2f2f2;fill-opacity:1;stroke:none;stroke-width:0.27377766;"
       xml:space="preserve"
       inkscape:export-xdpi="96"
       inkscape:export-ydpi="96"><tspan
         style="font-style:normal;font-variant:normal;font-weight:normal;font-stretch:normal;font-size:11.68118191px;font-family:'Comic Sans MS';-inkscape-font-specification:'Comic Sans MS, Normal';font-variant-ligatures:normal;font-variant-caps:normal;font-variant-numeric:normal;font-feature-settings:normal;text-align:start;writing-mode:lr-tb;text-anchor:start;fill:#f2f2f2;stroke-width:0.27377766;fill-opacity:1;"
         y="87.699753"
         x="128.25505"
         id="tspan1431"
         sodipodi:role="line">NAPĘDY SCENY</tspan><tspan
         id="tspan1435"
         style="font-style:normal;font-variant:normal;font-weight:normal;font-stretch:normal;font-size:11.68118191px;font-family:'Comic Sans MS';-inkscape-font-specification:'Comic Sans MS, Normal';font-variant-ligatures:normal;font-variant-caps:normal;font-variant-numeric:normal;font-feature-settings:normal;text-align:start;writing-mode:lr-tb;text-anchor:start;fill:#f2f2f2;stroke-width:0.27377766;fill-opacity:1;"
         y="102.80891"
         x="128.25505"
         sodipodi:role="line">TEATRU WIELKIEGO</tspan></text>
  </g>
</svg>
